# xmcd
#
# Track frame offsets:
#	150
#	23336
#	49622
#	83062
#	123860
#	167382
#	192160
#	213983
#	245315
#	271560
#	323567
#
# Disc length: 4617 seconds
#
# Revision: 0
# Processed by: cddbd v1.4PL0 Copyright (c) Steve Scherf et al.
# Submitted via: dBpowerAMP V4.0
#
DISCID=7612070b
DTITLE=Millaire, Jean - and Johnny Blues Band
DYEAR=2003
DGENRE=Blues
TTITLE0=Celebrate the Blues
TTITLE1=They Call me the Breeze
TTITLE2=Help Me
TTITLE3=Bistro Blues
TTITLE4=These Blues
TTITLE5=Walking the Dog
TTITLE6=Back in Town
TTITLE7=The Messiah
TTITLE8=Magic Touch
TTITLE9=Mine Again
TTITLE10=Call me Woman
EXTD=
EXTT0=
EXTT1=
EXTT2=
EXTT3=
EXTT4=
EXTT5=
EXTT6=
EXTT7=
EXTT8=
EXTT9=
EXTT10=
PLAYORDER=
